<mxfile host="app.diagrams.net" modified="2023-04-05T04:59:46.158Z" agent="Mozilla/5.0 (Windows NT 10.0; Win64; x64) AppleWebKit/537.36 (KHTML, like Gecko) Chrome/111.0.0.0 Safari/537.36 Edg/111.0.1661.62" etag="clkYmhqXwpj_djpFPAQ-" version="21.1.4" type="github">
  <diagram name="第 1 页" id="QA4Xayj2CMFigzvMXL0L">
    <mxGraphModel dx="946" dy="553" grid="1" gridSize="10" guides="1" tooltips="1" connect="1" arrows="1" fold="1" page="1" pageScale="1" pageWidth="827" pageHeight="1169" math="0" shadow="0">
      <root>
        <mxCell id="0" />
        <mxCell id="1" parent="0" />
        <mxCell id="I13WOzouh4kz9gHGQP0j-1" value="&lt;h2 style=&quot;box-sizing: border-box; margin-top: 0px; font-family: &amp;quot;Source Sans Pro&amp;quot;, ff-tisa-web-pro, Georgia, Arial, sans-serif; font-size: 24px; color: rgb(64, 64, 64); text-align: start; background-color: rgb(252, 252, 252);&quot; id=&quot;_1&quot;&gt;指定输入数据的尺寸&lt;/h2&gt;" style="rounded=0;whiteSpace=wrap;html=1;" vertex="1" parent="1">
          <mxGeometry x="150" y="30" width="240" height="60" as="geometry" />
        </mxCell>
        <mxCell id="I13WOzouh4kz9gHGQP0j-2" value="step1" style="text;html=1;align=center;verticalAlign=middle;resizable=0;points=[];autosize=1;strokeColor=none;fillColor=none;" vertex="1" parent="1">
          <mxGeometry x="70" y="40" width="50" height="30" as="geometry" />
        </mxCell>
        <mxCell id="I13WOzouh4kz9gHGQP0j-3" value="step2" style="text;html=1;align=center;verticalAlign=middle;resizable=0;points=[];autosize=1;strokeColor=none;fillColor=none;" vertex="1" parent="1">
          <mxGeometry x="70" y="130" width="50" height="30" as="geometry" />
        </mxCell>
        <mxCell id="I13WOzouh4kz9gHGQP0j-4" value="&lt;h2 style=&quot;box-sizing: border-box; margin-top: 0px; font-family: &amp;quot;Source Sans Pro&amp;quot;, ff-tisa-web-pro, Georgia, Arial, sans-serif; font-size: 24px; color: rgb(64, 64, 64); text-align: start; background-color: rgb(252, 252, 252);&quot; id=&quot;_2&quot;&gt;模型编译&lt;/h2&gt;" style="rounded=0;whiteSpace=wrap;html=1;" vertex="1" parent="1">
          <mxGeometry x="150" y="120" width="240" height="50" as="geometry" />
        </mxCell>
      </root>
    </mxGraphModel>
  </diagram>
</mxfile>
